<?xml version="1.0"?><svg width="250" height="250" xmlns="http://www.w3.org/2000/svg">

 <g>
  <title>Layer 1</title>
  <g id="layer1">
   <path stroke-width="1.0000000pt" stroke="#000000" fill="#ffffff" id="path1088" d="m88.884865,126.872993c-18.945641,0.079102 -37.145477,7.380898 -53.591652,16.52581c-14.655878,8.46904 -28.638895,21.083374 -33.154175,38.349289c-3.857148,15.247299 1.888954,32.060822 12.690942,42.84993c11.339675,10.896973 28.049186,13.039139 42.86167,10.736008c17.236763,-2.805283 33.693184,-9.914749 48.420914,-19.42836c13.230415,-8.797699 25.185349,-21.775925 27.896088,-38.285858c2.086075,-14.042694 -2.653229,-27.093643 -12.460815,-36.967621c-5.010033,6.896805 -9.331581,12.906067 -12.431915,20.941589c-0.442284,3.953278 1.5811,7.632401 0.206841,12.016922c-1.954308,10.289124 -10.64344,17.204666 -18.809044,22.468216c-12.23201,7.204178 -25.610573,13.205872 -39.777981,14.59642c-8.087341,0.761993 -17.754673,-1.116577 -22.147156,-8.93985c-4.0979,-6.459305 -3.250494,-15.187576 1.269835,-21.177917c8.300653,-11.472 21.404356,-17.729767 33.99724,-22.8862c7.666393,-2.948975 14.568012,-4.996628 22.809986,-5.072479c1.930298,-8.804657 6.120705,-17.337921 10.983109,-24.811249c-3.177864,-0.560524 -5.538361,-0.892624 -8.763885,-0.91465z"/>
   <path stroke-width="1.0000000pt" stroke="#000000" fill="#ffffff" id="path1089" d="m169.234848,80.172623c-13.075607,0.465004 -25.832977,5.055428 -36.551056,12.726845c-13.727379,9.789627 -25.717224,22.276337 -34.909134,36.630424c-1.871948,3.720078 -4.891159,8.322937 -6.582207,12.722336c-3.838364,9.420303 -5.504555,19.838181 -4.849808,30.026382c0.637573,7.931152 3.082985,14.894485 10.07222,18.664322c5.894737,-4.940918 12.251846,-11.144836 11.696732,-19.406403c-3.111732,-4.017044 -0.989143,-9.32254 1.290092,-13.429962c8.364182,-17.137314 21.121185,-31.57132 35.383163,-43.741669c4.890915,-3.998077 10.385437,-7.86644 16.351196,-10.28244c3.926407,-1.509346 8.952026,-1.289558 11.740265,2.328682c4.376419,3.513847 1.291443,8.759636 2.308182,12.509422c4.210754,6.446487 12.188828,7.19841 19.418793,4.176918c2.748077,-8.77359 4.112411,-14.843483 1.955124,-23.939201c-3.130081,-10.60891 -13.195084,-18.948196 -24.123199,-18.985657c-1.066223,-0.044991 -2.134033,-0.03968 -3.200363,0zm-12.048096,60.896927c-7.642441,8.854645 -13.255737,15.505798 -22.587982,22.453918c2.335144,9.479324 0.248627,19.141296 -4.174377,27.742905c19.294754,-6.511215 33.846909,-19.973907 46.996384,-35.437119c2.575455,-2.453369 3.686462,-4.379166 -0.48941,-4.587936c-6.99147,-2.1306 -14.721741,-4.671539 -19.744614,-10.171768z"/>
   <path fill="#ffffff" stroke="#000000" stroke-width="1.0000000pt" id="path1100" d="m205.148865,13.427283c-15.74054,-0.341799 -29.6138,10.078786 -38.676117,22.566907c-10.137054,14.081779 -18.408447,32.732426 -22.291901,49.714893c6.294724,-4.340492 22.373581,-7.309242 29.062119,-6.434875c4.503082,-12.616043 10.078552,-27.543892 20.687286,-35.989037c6.265244,-5.323402 15.84343,-5.560837 22.223328,-0.349659c7.720978,6.1819 8.147873,17.452362 6.929504,26.6134c-2.116501,13.611008 -6.979523,26.760864 -13.721588,38.651108c-4.903854,8.11834 -11.956665,16.822647 -21.888809,17.662308c-8.267136,0.595398 -16.258453,-5.541992 -18.063965,-13.860428c-1.743576,-2.424309 -0.068924,-7.692253 -2.425827,-7.801018c-3.441925,-1.042343 -12.609818,3.508194 -20.632523,10.119217c1.203018,13.858627 6.367264,24.084442 18.401123,30.854507c11.987106,7.105591 27.458862,8.774277 39.974304,2.02478c14.760361,-7.522186 24.650345,-22.170135 31.506638,-37.104034c8.029739,-18.283028 14.247543,-38.630852 11.182755,-58.881901c-1.811951,-12.860935 -8.998764,-25.138941 -20.301987,-31.37537c-6.696442,-3.830208 -14.268661,-6.279518 -21.96434,-6.410798z"/>
  </g>
 </g>
</svg>